<svg width="473" height="480" viewBox="0 0 473 480" fill="none" xmlns="http://www.w3.org/2000/svg">
<path d="M393.766 332.013L347.226 285.213C346.485 284.468 345.605 283.876 344.635 283.472C343.666 283.067 342.626 282.857 341.576 282.854C340.525 282.851 339.484 283.055 338.512 283.455C337.541 283.854 336.657 284.441 335.912 285.182L313.223 307.746C312.478 308.487 311.886 309.367 311.481 310.336C311.077 311.306 310.867 312.346 310.864 313.396C310.861 314.447 311.065 315.488 311.464 316.46C311.863 317.431 312.45 318.315 313.191 319.06L341.4 347.425L334.309 354.478C330.178 358.596 327.85 364.184 327.834 370.016C327.818 375.849 330.116 381.45 334.224 385.59L341.275 392.68L334.185 399.731C332.136 401.768 330.509 404.189 329.396 406.855C328.283 409.522 327.706 412.381 327.698 415.27C327.69 418.16 328.252 421.022 329.35 423.694C330.449 426.367 332.063 428.796 334.1 430.845L380.64 477.645C382.137 479.148 384.168 479.995 386.289 480H386.311C388.425 480 390.453 479.163 391.952 477.672L414.641 455.106C416.145 453.61 416.994 451.577 416.999 449.456C417.005 447.334 416.168 445.297 414.672 443.793L386.466 415.432L393.556 408.381C395.605 406.344 397.232 403.923 398.345 401.257C399.458 398.591 400.035 395.731 400.043 392.842C400.051 389.953 399.49 387.091 398.392 384.419C397.293 381.746 395.679 379.317 393.642 377.268L386.59 370.177L393.681 363.125C397.812 359.007 400.141 353.419 400.157 347.587C400.173 341.754 397.874 336.153 393.766 332.013V332.013ZM386.342 460.687L345.442 419.562C344.886 419.003 344.446 418.341 344.147 417.612C343.847 416.883 343.694 416.102 343.696 415.314C343.699 414.526 343.856 413.746 344.16 413.019C344.463 412.292 344.907 411.632 345.466 411.076L352.556 404.025L397.687 449.4L386.342 460.687ZM345.566 374.307C344.446 373.178 343.819 371.65 343.823 370.059C343.827 368.468 344.463 366.944 345.589 365.821L352.68 358.77L382.3 388.551C383.422 389.679 384.05 391.207 384.045 392.798C384.041 394.389 383.405 395.913 382.277 397.035L375.187 404.087L345.566 374.307ZM330.178 313.453L341.522 302.171L382.422 343.296C383.543 344.425 384.17 345.952 384.165 347.543C384.161 349.133 383.526 350.657 382.399 351.78L375.309 358.832L375.289 358.812L330.178 313.453Z" fill="url(#paint0_linear)"/>
<path d="M2.28 448.907L19.641 475.789C20.7919 477.571 22.6036 478.823 24.6775 479.27C26.7514 479.716 28.9177 479.321 30.7 478.17L86.142 442.361C91.0381 439.191 94.4767 434.208 95.7035 428.506C96.9304 422.803 95.8451 416.847 92.686 411.944L87.261 403.544L95.661 398.118C100.557 394.948 103.996 389.965 105.223 384.263C106.449 378.56 105.364 372.604 102.205 367.701L96.781 359.301L130.381 337.601C131.264 337.031 132.025 336.293 132.623 335.428C133.22 334.564 133.641 333.591 133.862 332.563C134.083 331.536 134.099 330.476 133.911 329.442C133.722 328.409 133.331 327.423 132.761 326.54L115.4 299.66C114.249 297.878 112.437 296.625 110.363 296.179C108.289 295.732 106.122 296.128 104.34 297.279L48.9 333.087C43.9996 336.253 40.5571 341.235 39.3297 346.938C38.1024 352.642 39.1906 358.599 42.355 363.5L47.781 371.9L39.381 377.325C36.9539 378.892 34.8593 380.922 33.2168 383.299C31.5743 385.676 30.4161 388.353 29.8082 391.178C29.2004 394.002 29.1548 396.919 29.6742 399.761C30.1935 402.603 31.2675 405.315 32.835 407.742L38.261 416.142L4.661 437.842C3.77779 438.412 3.01555 439.15 2.41784 440.015C1.82014 440.88 1.39868 441.853 1.17756 442.881C0.956435 443.909 0.939986 444.97 1.12915 446.004C1.31831 447.038 1.70938 448.024 2.28 448.907V448.907ZM55.8 354.823C54.9368 353.486 54.6399 351.861 54.9747 350.306C55.3094 348.75 56.2484 347.391 57.585 346.528L106.3 315.061L114.98 328.501L61.221 363.223L55.8 354.823ZM46.28 399.065C45.4171 397.728 45.1204 396.104 45.4551 394.548C45.7899 392.993 46.7287 391.634 48.065 390.771L83.347 367.984L88.772 376.384C89.6347 377.722 89.9312 379.347 89.5965 380.903C89.2619 382.459 88.3233 383.819 86.987 384.684L51.7 407.465L46.28 399.065ZM73.827 412.226L79.252 420.626C80.1147 421.964 80.4112 423.589 80.0765 425.145C79.7419 426.701 78.8033 428.061 77.467 428.926L28.741 460.389L20.061 446.947L73.827 412.226Z" fill="url(#paint1_linear)"/>
<path d="M154.544 196.671C155.605 196.672 156.656 196.462 157.634 196.052C158.613 195.643 159.5 195.042 160.244 194.285L182.7 171.485C184.189 169.973 185.016 167.932 185 165.811C184.984 163.689 184.125 161.661 182.614 160.172L154.114 132.103L161.132 124.977C165.226 120.82 167.501 115.207 167.457 109.372C167.412 103.538 165.052 97.9602 160.895 93.866L153.771 86.849L160.789 79.724C164.877 75.5639 167.148 69.9521 167.104 64.1197C167.059 58.2873 164.704 52.7107 160.553 48.613L113.534 2.30001C112.786 1.56265 111.899 0.979942 110.926 0.585154C109.952 0.190366 108.91 -0.00876595 107.859 -0.000872853C106.809 0.00702025 105.77 0.221785 104.802 0.631158C103.835 1.04053 102.957 1.63649 102.22 2.38501L79.765 25.185C78.2762 26.6966 77.4489 28.7377 77.4651 30.8593C77.4812 32.9809 78.3394 35.0092 79.851 36.498L108.351 64.568L101.334 71.692C99.3065 73.7503 97.7044 76.1877 96.6189 78.8652C95.5335 81.5426 94.9861 84.4077 95.0079 87.2967C95.0297 90.1857 95.6204 93.0421 96.7461 95.7029C97.8719 98.3636 99.5107 100.777 101.569 102.804L108.693 109.821L101.676 116.946C97.5874 121.106 95.3161 126.718 95.3603 132.551C95.4046 138.384 97.7608 143.96 101.912 148.058L148.933 194.371C150.427 195.847 152.444 196.673 154.544 196.671ZM149.67 105.271C150.804 106.388 151.447 107.909 151.459 109.5C151.471 111.092 150.851 112.622 149.734 113.756L142.717 120.881L112.794 91.4C111.66 90.2833 111.017 88.762 111.005 87.1708C110.993 85.5795 111.613 84.0487 112.73 82.915L119.748 75.791L149.67 105.271ZM108.005 19.313L149.327 60.013C150.459 61.1305 151.102 62.6515 151.114 64.2423C151.126 65.833 150.506 67.3636 149.391 68.498L142.374 75.622L96.774 30.711L108.005 19.313ZM113.073 128.172L120.09 121.048L165.69 165.959L154.462 177.359L113.14 136.659C112.007 135.542 111.364 134.02 111.351 132.429C111.339 130.838 111.958 129.307 113.073 128.172V128.172Z" fill="url(#paint2_linear)"/>
<path d="M257 72C257 67.2533 255.592 62.6131 252.955 58.6663C250.318 54.7195 246.57 51.6434 242.184 49.8269C237.799 48.0104 232.973 47.5351 228.318 48.4612C223.662 49.3872 219.386 51.673 216.029 55.0294C212.673 58.3859 210.387 62.6623 209.461 67.3178C208.535 71.9734 209.01 76.799 210.827 81.1844C212.643 85.5698 215.72 89.3181 219.666 91.9553C223.613 94.5924 228.253 96 233 96C239.363 95.9929 245.463 93.462 249.963 88.9627C254.462 84.4634 256.993 78.363 257 72V72ZM225 72C225 70.4178 225.469 68.871 226.348 67.5554C227.227 66.2399 228.477 65.2145 229.939 64.609C231.4 64.0035 233.009 63.845 234.561 64.1537C236.113 64.4624 237.538 65.2243 238.657 66.3432C239.776 67.462 240.538 68.8874 240.846 70.4393C241.155 71.9911 240.997 73.5997 240.391 75.0615C239.786 76.5233 238.76 77.7727 237.445 78.6518C236.129 79.5308 234.582 80 233 80C230.879 79.9976 228.846 79.154 227.346 77.6542C225.846 76.1545 225.002 74.121 225 72Z" fill="url(#paint3_linear)"/>
<path d="M433 272C428.253 272 423.613 273.408 419.666 276.045C415.72 278.682 412.643 282.43 410.827 286.816C409.01 291.201 408.535 296.027 409.461 300.682C410.387 305.338 412.673 309.614 416.029 312.971C419.386 316.327 423.662 318.613 428.318 319.539C432.973 320.465 437.799 319.99 442.184 318.173C446.57 316.357 450.318 313.28 452.955 309.334C455.592 305.387 457 300.747 457 296C456.993 289.637 454.462 283.537 449.963 279.037C445.463 274.538 439.363 272.007 433 272V272ZM433 304C431.418 304 429.871 303.531 428.555 302.652C427.24 301.773 426.214 300.523 425.609 299.061C425.003 297.6 424.845 295.991 425.154 294.439C425.462 292.887 426.224 291.462 427.343 290.343C428.462 289.224 429.887 288.462 431.439 288.154C432.991 287.845 434.6 288.003 436.061 288.609C437.523 289.214 438.773 290.24 439.652 291.555C440.531 292.871 441 294.418 441 296C440.998 298.121 440.154 300.154 438.654 301.654C437.154 303.154 435.121 303.998 433 304V304Z" fill="url(#paint4_linear)"/>
<path d="M193 432C193 427.253 191.592 422.613 188.955 418.666C186.318 414.72 182.57 411.643 178.184 409.827C173.799 408.01 168.973 407.535 164.318 408.461C159.662 409.387 155.386 411.673 152.029 415.029C148.673 418.386 146.387 422.662 145.461 427.318C144.535 431.973 145.01 436.799 146.827 441.184C148.643 445.57 151.72 449.318 155.666 451.955C159.613 454.592 164.253 456 169 456C175.363 455.993 181.463 453.462 185.963 448.963C190.462 444.463 192.993 438.363 193 432V432ZM169 440C167.418 440 165.871 439.531 164.555 438.652C163.24 437.773 162.214 436.523 161.609 435.061C161.003 433.6 160.845 431.991 161.154 430.439C161.462 428.887 162.224 427.462 163.343 426.343C164.462 425.224 165.887 424.462 167.439 424.154C168.991 423.845 170.6 424.003 172.061 424.609C173.523 425.214 174.773 426.24 175.652 427.555C176.531 428.871 177 430.418 177 432C176.998 434.121 176.154 436.154 174.654 437.654C173.154 439.154 171.121 439.998 169 440Z" fill="url(#paint5_linear)"/>
<path d="M17 88C17 92.7468 18.4076 97.3869 21.0447 101.334C23.6819 105.28 27.4302 108.357 31.8156 110.173C36.201 111.99 41.0266 112.465 45.6822 111.539C50.3377 110.613 54.6141 108.327 57.9706 104.971C61.327 101.614 63.6128 97.3377 64.5388 92.6822C65.4649 88.0266 64.9896 83.201 63.1731 78.8156C61.3566 74.4302 58.2805 70.6819 54.3337 68.0447C50.3869 65.4076 45.7468 64 41 64C34.637 64.0071 28.5367 66.538 24.0373 71.0373C19.538 75.5367 17.0071 81.637 17 88V88ZM41 80C42.5823 80 44.129 80.4692 45.4446 81.3482C46.7602 82.2273 47.7855 83.4767 48.391 84.9385C48.9965 86.4003 49.155 88.0089 48.8463 89.5607C48.5376 91.1126 47.7757 92.538 46.6569 93.6569C45.538 94.7757 44.1126 95.5376 42.5607 95.8463C41.0089 96.155 39.4003 95.9965 37.9385 95.391C36.4767 94.7855 35.2273 93.7602 34.3482 92.4446C33.4692 91.129 33 89.5823 33 88C33.0024 85.879 33.846 83.8456 35.3458 82.3458C36.8456 80.846 38.879 80.0024 41 80Z" fill="url(#paint6_linear)"/>
<path d="M65 280C72.9113 280 80.6448 277.654 87.2228 273.259C93.8008 268.864 98.9277 262.616 101.955 255.307C104.983 247.998 105.775 239.956 104.231 232.196C102.688 224.437 98.8784 217.31 93.2843 211.716C87.6902 206.122 80.5629 202.312 72.8036 200.769C65.0444 199.225 57.0017 200.017 49.6927 203.045C42.3836 206.072 36.1365 211.199 31.7412 217.777C27.346 224.355 25 232.089 25 240C25.0119 250.605 29.23 260.772 36.7289 268.271C44.2278 275.77 54.395 279.988 65 280V280ZM65 216C69.7468 216 74.3869 217.408 78.3337 220.045C82.2805 222.682 85.3566 226.43 87.1731 230.816C88.9896 235.201 89.4649 240.027 88.5388 244.682C87.6128 249.338 85.327 253.614 81.9706 256.971C78.6141 260.327 74.3377 262.613 69.6822 263.539C65.0266 264.465 60.201 263.99 55.8156 262.173C51.4302 260.357 47.6819 257.28 45.0447 253.334C42.4076 249.387 41 244.747 41 240C41.0074 233.637 43.5384 227.537 48.0376 223.038C52.5369 218.538 58.6371 216.007 65 216V216Z" fill="url(#paint7_linear)"/>
<path d="M329 208C329 214.329 330.877 220.516 334.393 225.778C337.909 231.041 342.907 235.142 348.754 237.564C354.601 239.986 361.035 240.62 367.243 239.385C373.45 238.15 379.152 235.103 383.627 230.627C388.103 226.152 391.15 220.45 392.385 214.243C393.62 208.035 392.986 201.601 390.564 195.754C388.142 189.907 384.041 184.909 378.778 181.393C373.516 177.877 367.329 176 361 176C352.516 176.01 344.382 179.384 338.383 185.383C332.384 191.382 329.01 199.516 329 208ZM361 192C364.165 192 367.258 192.938 369.889 194.696C372.52 196.455 374.571 198.953 375.782 201.877C376.993 204.801 377.31 208.018 376.693 211.121C376.075 214.225 374.551 217.076 372.314 219.314C370.076 221.551 367.225 223.075 364.121 223.693C361.018 224.31 357.801 223.993 354.877 222.782C351.953 221.571 349.455 219.52 347.696 216.889C345.938 214.258 345 211.165 345 208C345.005 203.758 346.692 199.691 349.692 196.692C352.691 193.692 356.758 192.005 361 192Z" fill="url(#paint8_linear)"/>
<path d="M369 56C369 63.9113 371.346 71.6448 375.741 78.2228C380.136 84.8008 386.384 89.9277 393.693 92.9552C401.002 95.9827 409.044 96.7748 416.804 95.2314C424.563 93.688 431.69 89.8784 437.284 84.2843C442.878 78.6902 446.688 71.5629 448.231 63.8036C449.775 56.0444 448.983 48.0017 445.955 40.6927C442.928 33.3836 437.801 27.1365 431.223 22.7412C424.645 18.346 416.911 16 409 16C398.395 16.0119 388.228 20.23 380.729 27.7289C373.23 35.2278 369.012 45.395 369 56V56ZM409 32C413.747 32 418.387 33.4076 422.334 36.0447C426.28 38.6819 429.357 42.4302 431.173 46.8156C432.99 51.201 433.465 56.0266 432.539 60.6822C431.613 65.3377 429.327 69.6141 425.971 72.9706C422.614 76.327 418.338 78.6128 413.682 79.5388C409.027 80.4649 404.201 79.9896 399.816 78.1731C395.43 76.3566 391.682 73.2805 389.045 69.3337C386.408 65.3869 385 60.7468 385 56C385.007 49.6371 387.538 43.5369 392.038 39.0376C396.537 34.5384 402.637 32.0074 409 32V32Z" fill="url(#paint9_linear)"/>
<path d="M287.757 298L276.238 262.548L306.395 240.638C309.126 238.653 311.159 235.855 312.202 232.644C313.245 229.433 313.245 225.974 312.201 222.763C311.157 219.552 309.124 216.754 306.392 214.77C303.661 212.786 300.371 211.718 296.995 211.718H259.723L248.2 176.263C247.157 173.052 245.124 170.254 242.393 168.269C239.662 166.285 236.372 165.216 232.996 165.216C229.62 165.216 226.33 166.285 223.599 168.269C220.868 170.254 218.835 173.052 217.792 176.263L206.273 211.713H169C165.624 211.713 162.334 212.781 159.603 214.765C156.871 216.749 154.838 219.547 153.794 222.758C152.75 225.969 152.75 229.428 153.793 232.639C154.836 235.85 156.869 238.648 159.6 240.633L189.757 262.543L178.238 297.994C177.194 301.205 177.194 304.664 178.237 307.874C179.28 311.085 181.313 313.884 184.044 315.868C186.776 317.853 190.065 318.922 193.441 318.921C196.817 318.921 200.107 317.853 202.838 315.868L233 293.958L263.157 315.868C265.874 317.888 269.169 318.978 272.554 318.978C275.939 318.978 279.234 317.888 281.951 315.868C284.71 313.909 286.765 311.113 287.811 307.895C288.856 304.676 288.838 301.207 287.757 298V298ZM259.225 261.964L272.525 302.903L237.7 277.6C236.334 276.608 234.688 276.074 233 276.074C231.312 276.074 229.666 276.608 228.3 277.6L193.475 302.9L206.775 261.961C207.297 260.354 207.297 258.624 206.775 257.017C206.253 255.411 205.236 254.011 203.869 253.018L169.043 227.718H212.09C213.779 227.718 215.425 227.183 216.792 226.19C218.159 225.197 219.176 223.797 219.698 222.19L233 181.246L246.3 222.185C246.822 223.792 247.839 225.192 249.206 226.185C250.573 227.178 252.219 227.713 253.908 227.713H296.956L262.129 253.013C260.762 254.006 259.745 255.407 259.223 257.014C258.702 258.621 258.702 260.352 259.225 261.959V261.964Z" fill="url(#paint10_linear)"/>
<path d="M251.112 404.084L271.223 379.193C272.556 377.543 273.18 375.43 272.955 373.321C272.731 371.211 271.678 369.276 270.028 367.943L232.691 337.777C231.874 337.117 230.934 336.625 229.926 336.328C228.919 336.031 227.862 335.936 226.818 336.047C225.773 336.158 224.76 336.475 223.838 336.977C222.915 337.48 222.101 338.159 221.441 338.977L201.33 363.867C199.997 365.517 199.374 367.63 199.598 369.739C199.822 371.849 200.875 373.784 202.525 375.117L239.861 405.283C240.678 405.943 241.618 406.436 242.625 406.734C243.633 407.031 244.689 407.127 245.734 407.016C246.779 406.905 247.792 406.589 248.714 406.087C249.637 405.584 250.452 404.905 251.112 404.088V404.084ZM218.8 367.7L228.855 355.255L253.747 375.366L243.691 387.812L218.8 367.7Z" fill="url(#paint11_linear)"/>
<path d="M470.028 151.943L432.691 121.777C431.874 121.117 430.934 120.625 429.926 120.328C428.919 120.031 427.862 119.936 426.818 120.047C425.773 120.158 424.76 120.475 423.838 120.977C422.915 121.48 422.101 122.16 421.441 122.977L401.33 147.867C399.997 149.517 399.374 151.63 399.598 153.739C399.822 155.849 400.875 157.784 402.525 159.117L439.861 189.283C440.678 189.943 441.618 190.436 442.625 190.734C443.633 191.031 444.689 191.127 445.734 191.016C446.779 190.905 447.792 190.589 448.714 190.087C449.637 189.584 450.452 188.905 451.112 188.088L471.223 163.197C472.556 161.547 473.18 159.434 472.955 157.325C472.731 155.215 471.678 153.28 470.028 151.947V151.943ZM443.694 171.807L418.8 151.7L428.855 139.255L453.747 159.366L443.694 171.807Z" fill="url(#paint12_linear)"/>
<path d="M275.972 147.559L300.863 167.67C302.287 168.82 304.061 169.447 305.891 169.447C306.173 169.447 306.455 169.432 306.735 169.402C307.78 169.291 308.793 168.976 309.715 168.474C310.638 167.972 311.453 167.292 312.113 166.475L342.28 129.138C343.613 127.488 344.237 125.375 344.012 123.266C343.788 121.156 342.735 119.221 341.085 117.888L316.194 97.777C315.377 97.1169 314.437 96.6244 313.429 96.3275C312.421 96.0306 311.365 95.9351 310.32 96.0465C309.275 96.158 308.263 96.4741 307.34 96.9769C306.417 97.4797 305.603 98.1594 304.943 98.977L274.777 136.313C273.445 137.963 272.823 140.075 273.047 142.183C273.271 144.292 274.323 146.226 275.972 147.559V147.559ZM312.361 115.25L324.807 125.306L304.7 150.2L292.25 140.141L312.361 115.25Z" fill="url(#paint13_linear)"/>
<path d="M305 48C306.582 48.0001 308.129 47.5309 309.445 46.6519C310.76 45.7728 311.786 44.5234 312.391 43.0615C312.997 41.5997 313.155 39.9911 312.847 38.4392C312.538 36.8873 311.776 35.4618 310.657 34.343L294.657 18.343C293.157 16.8427 291.122 15.9998 289 15.9998C286.878 15.9998 284.843 16.8427 283.343 18.343C281.843 19.8434 281 21.8782 281 24C281 26.1218 281.843 28.1567 283.343 29.657L299.343 45.657C300.085 46.4009 300.967 46.9909 301.938 47.393C302.908 47.7951 303.949 48.0014 305 48V48Z" fill="url(#paint14_linear)"/>
<path d="M148.562 374.656C150.327 375.833 152.488 376.261 154.568 375.845C156.649 375.429 158.479 374.203 159.656 372.438L175.656 348.438C176.82 346.673 177.237 344.518 176.817 342.446C176.397 340.374 175.174 338.552 173.415 337.379C171.655 336.206 169.503 335.778 167.429 336.187C165.355 336.596 163.526 337.809 162.344 339.562L146.344 363.562C145.167 365.327 144.74 367.488 145.156 369.568C145.571 371.649 146.797 373.479 148.562 374.656V374.656Z" fill="url(#paint15_linear)"/>
<path d="M299.343 445.657C300.843 447.157 302.878 448 305 448C307.122 448 309.157 447.157 310.657 445.657C312.157 444.157 313 442.122 313 440C313 437.878 312.157 435.843 310.657 434.343L294.657 418.343C293.157 416.843 291.122 416 289 416C286.878 416 284.843 416.843 283.343 418.343C281.843 419.843 281 421.878 281 424C281 426.122 281.843 428.157 283.343 429.657L299.343 445.657Z" fill="url(#paint16_linear)"/>
<path d="M419.343 226.343L403.343 242.343C402.6 243.086 402.011 243.968 401.609 244.938C401.207 245.909 401 246.949 401 248C401 249.051 401.207 250.091 401.609 251.062C402.011 252.032 402.6 252.914 403.343 253.657C404.086 254.4 404.968 254.989 405.938 255.391C406.909 255.793 407.949 256 409 256C410.051 256 411.091 255.793 412.062 255.391C413.032 254.989 413.914 254.4 414.657 253.657L430.657 237.657C432.157 236.157 433 234.122 433 232C433 229.878 432.157 227.843 430.657 226.343C429.157 224.843 427.122 224 425 224C422.878 224 420.843 224.843 419.343 226.343Z" fill="url(#paint17_linear)"/>
<path d="M38.657 173.657C39.3999 172.914 39.9892 172.032 40.3913 171.062C40.7933 170.091 41.0003 169.051 41.0003 168C41.0003 166.949 40.7933 165.909 40.3913 164.938C39.9892 163.968 39.3999 163.086 38.657 162.343L22.657 146.343C21.9141 145.6 21.0321 145.011 20.0615 144.609C19.0909 144.207 18.0506 144 17 144C15.9494 144 14.909 144.207 13.9384 144.609C12.9678 145.011 12.0858 145.6 11.343 146.343C10.6001 147.086 10.0108 147.968 9.60873 148.938C9.20669 149.909 8.99976 150.949 8.99976 152C8.99976 153.051 9.20669 154.091 9.60873 155.062C10.0108 156.032 10.6001 156.914 11.343 157.657L27.343 173.657C28.0858 174.4 28.9678 174.989 29.9384 175.391C30.909 175.793 31.9494 176 33 176C34.0506 176 35.0909 175.793 36.0615 175.391C37.0322 174.989 37.9141 174.4 38.657 173.657Z" fill="url(#paint18_linear)"/>
<defs>
<linearGradient id="paint0_linear" x1="363.932" y1="282.854" x2="363.932" y2="480" gradientUnits="userSpaceOnUse">
<stop stop-color="#7ED56F"/>
<stop offset="1" stop-color="#28B485"/>
</linearGradient>
<linearGradient id="paint1_linear" x1="67.5197" y1="296" x2="67.5197" y2="479.449" gradientUnits="userSpaceOnUse">
<stop stop-color="#7ED56F"/>
<stop offset="1" stop-color="#28B485"/>
</linearGradient>
<linearGradient id="paint2_linear" x1="131.232" y1="-0.00109863" x2="131.232" y2="196.671" gradientUnits="userSpaceOnUse">
<stop stop-color="#7ED56F"/>
<stop offset="1" stop-color="#28B485"/>
</linearGradient>
<linearGradient id="paint3_linear" x1="233" y1="48" x2="233" y2="96" gradientUnits="userSpaceOnUse">
<stop stop-color="#7ED56F"/>
<stop offset="1" stop-color="#28B485"/>
</linearGradient>
<linearGradient id="paint4_linear" x1="433" y1="272" x2="433" y2="320" gradientUnits="userSpaceOnUse">
<stop stop-color="#7ED56F"/>
<stop offset="1" stop-color="#28B485"/>
</linearGradient>
<linearGradient id="paint5_linear" x1="169" y1="408" x2="169" y2="456" gradientUnits="userSpaceOnUse">
<stop stop-color="#7ED56F"/>
<stop offset="1" stop-color="#28B485"/>
</linearGradient>
<linearGradient id="paint6_linear" x1="41" y1="64" x2="41" y2="112" gradientUnits="userSpaceOnUse">
<stop stop-color="#7ED56F"/>
<stop offset="1" stop-color="#28B485"/>
</linearGradient>
<linearGradient id="paint7_linear" x1="65" y1="200" x2="65" y2="280" gradientUnits="userSpaceOnUse">
<stop stop-color="#7ED56F"/>
<stop offset="1" stop-color="#28B485"/>
</linearGradient>
<linearGradient id="paint8_linear" x1="361" y1="176" x2="361" y2="240" gradientUnits="userSpaceOnUse">
<stop stop-color="#7ED56F"/>
<stop offset="1" stop-color="#28B485"/>
</linearGradient>
<linearGradient id="paint9_linear" x1="409" y1="16" x2="409" y2="96" gradientUnits="userSpaceOnUse">
<stop stop-color="#7ED56F"/>
<stop offset="1" stop-color="#28B485"/>
</linearGradient>
<linearGradient id="paint10_linear" x1="232.998" y1="165.216" x2="232.998" y2="318.978" gradientUnits="userSpaceOnUse">
<stop stop-color="#7ED56F"/>
<stop offset="1" stop-color="#28B485"/>
</linearGradient>
<linearGradient id="paint11_linear" x1="236.277" y1="336.002" x2="236.277" y2="407.061" gradientUnits="userSpaceOnUse">
<stop stop-color="#7ED56F"/>
<stop offset="1" stop-color="#28B485"/>
</linearGradient>
<linearGradient id="paint12_linear" x1="436.277" y1="120.002" x2="436.277" y2="191.061" gradientUnits="userSpaceOnUse">
<stop stop-color="#7ED56F"/>
<stop offset="1" stop-color="#28B485"/>
</linearGradient>
<linearGradient id="paint13_linear" x1="308.53" y1="96.0014" x2="308.53" y2="169.447" gradientUnits="userSpaceOnUse">
<stop stop-color="#7ED56F"/>
<stop offset="1" stop-color="#28B485"/>
</linearGradient>
<linearGradient id="paint14_linear" x1="297" y1="15.9998" x2="297" y2="48" gradientUnits="userSpaceOnUse">
<stop stop-color="#7ED56F"/>
<stop offset="1" stop-color="#28B485"/>
</linearGradient>
<linearGradient id="paint15_linear" x1="160.988" y1="336.035" x2="160.988" y2="376" gradientUnits="userSpaceOnUse">
<stop stop-color="#7ED56F"/>
<stop offset="1" stop-color="#28B485"/>
</linearGradient>
<linearGradient id="paint16_linear" x1="297" y1="416" x2="297" y2="448" gradientUnits="userSpaceOnUse">
<stop stop-color="#7ED56F"/>
<stop offset="1" stop-color="#28B485"/>
</linearGradient>
<linearGradient id="paint17_linear" x1="417" y1="224" x2="417" y2="256" gradientUnits="userSpaceOnUse">
<stop stop-color="#7ED56F"/>
<stop offset="1" stop-color="#28B485"/>
</linearGradient>
<linearGradient id="paint18_linear" x1="25" y1="144" x2="25" y2="176" gradientUnits="userSpaceOnUse">
<stop stop-color="#7ED56F"/>
<stop offset="1" stop-color="#28B485"/>
</linearGradient>
</defs>
</svg>
