<svg width="480" height="480" viewBox="0 0 480 480" fill="none" xmlns="http://www.w3.org/2000/svg">
<path d="M271.52 75.21C271.48 75.0301 271.45 74.8599 271.4 74.69L271.51 74.74L271.52 75.21Z" fill="url(#paint0_linear)"/>
<path d="M176 88C180.418 88 184 84.4183 184 80C184 75.5817 180.418 72 176 72C171.582 72 168 75.5817 168 80C168 84.4183 171.582 88 176 88Z" fill="url(#paint1_linear)"/>
<path d="M200 88C204.418 88 208 84.4183 208 80C208 75.5817 204.418 72 200 72C195.582 72 192 75.5817 192 80C192 84.4183 195.582 88 200 88Z" fill="url(#paint2_linear)"/>
<path d="M468.93 381.41L405.4 288.99C408.756 286 411.437 282.329 413.265 278.222C415.093 274.114 416.025 269.665 416 265.17C416.008 242.015 409.717 219.293 397.8 199.44L367.47 148.9L359.76 118.06C359.48 116.94 358.962 115.894 358.24 114.993C357.519 114.092 356.611 113.358 355.58 112.84L339.58 104.84C338.467 104.289 337.242 104.001 336 104H328V88C328.001 86.4641 327.559 84.9605 326.727 83.6694C325.895 82.3782 324.709 81.3542 323.31 80.72L279.93 61C279.385 49.2279 275.597 37.8354 268.986 28.0797C262.375 18.324 253.198 10.5844 242.466 5.71513C231.734 0.845832 219.866 -0.963874 208.171 0.485731C196.475 1.93534 185.408 6.58789 176.19 13.9299C171.264 12.052 166.015 11.1662 160.746 11.3233C155.477 11.4803 150.29 12.6773 145.485 14.8453C140.68 17.0133 136.35 20.1097 132.745 23.9563C129.141 27.803 126.332 32.3242 124.48 37.26C116.249 59.2017 111.541 82.3072 110.53 105.72L104.84 236.56V236.6C104.279 241.396 103.999 246.221 104 251.05C103.991 265.842 106.577 280.521 111.64 294.42L135.49 360H54.4899C41.5508 360.001 29.0342 364.606 19.1796 372.991C9.32508 381.376 2.77569 392.994 0.703343 405.766C-1.36901 418.538 1.17093 431.63 7.86867 442.701C14.5664 453.772 24.9849 462.098 37.2599 466.19C64.7087 475.344 93.4551 480.007 122.39 480H417.06C428.528 480 439.777 476.867 449.594 470.939C459.411 465.012 467.422 456.514 472.761 446.366C478.101 436.217 480.566 424.802 479.891 413.354C479.216 401.907 475.426 390.861 468.93 381.41V381.41ZM324.94 120H334.11L345.13 125.51L352.24 153.94C352.428 154.708 352.732 155.443 353.14 156.12L384.08 207.67C394.504 225.038 400.008 244.914 400 265.17C400.016 268.988 398.656 272.683 396.17 275.58L391.1 268.2L362.83 197.54C361.082 193.131 357.92 189.427 353.84 187.01L343.72 149.9C343.348 148.527 342.616 147.279 341.6 146.284C340.584 145.289 339.32 144.583 337.94 144.24L315.62 138.66L324.94 120ZM240 138.67L252.8 121.6C259.549 126.66 268.023 128.852 276.38 127.7L298.34 149.66H298.35C299.377 150.679 300.658 151.405 302.06 151.76L329.51 158.62L336.68 184.91C332.991 186.001 329.664 188.067 327.05 190.89L301.98 162.69C300.827 161.386 299.277 160.497 297.57 160.16L257.85 152.22L257.57 152.16C257.054 152.051 256.527 151.998 256 152H240V138.67ZM325.59 253.84L283.58 232.84C281.679 231.897 279.484 231.743 277.47 232.41L260.33 238.12C253.37 220.832 252.382 201.714 257.52 183.8L261.67 169.29L291.8 175.32L321.49 208.71V208.72L325.59 253.84ZM260.4 254.97L279.39 248.64L331.97 274.92V274.93C336.931 283.386 344.429 290.065 353.4 294.02L378.93 383.36L260.83 321.5C252.303 312.549 247.511 300.682 247.431 288.32C247.351 275.958 251.989 264.03 260.4 254.97V254.97ZM367.69 285.8C367.334 284.549 366.678 283.404 365.779 282.465C364.879 281.526 363.764 280.82 362.53 280.41C356.87 278.526 351.883 275.031 348.179 270.354C344.476 265.677 342.217 260.022 341.68 254.08L337.31 206.05C337.189 204.724 337.549 203.398 338.325 202.316C339.1 201.233 340.239 200.466 341.534 200.154C342.829 199.842 344.193 200.006 345.376 200.617C346.56 201.228 347.484 202.244 347.98 203.48L376.57 274.97C376.79 275.52 377.072 276.043 377.41 276.53L392.67 298.72L374.04 308.03L367.69 285.8ZM304 96C304.002 93.707 303.757 91.4205 303.27 89.1799L312 93.1499V110.1L301.81 130.49L292.16 120.84C295.858 117.842 298.84 114.056 300.888 109.759C302.937 105.461 304 100.761 304 96ZM271.51 74.74L271.52 75.21C271.48 75.0301 271.45 74.8599 271.4 74.69L271.51 74.74ZM272 96V95C274.445 90.5931 276.355 85.91 277.69 81.0501C281.187 82.3802 284.107 84.8941 285.943 88.1544C287.778 91.4147 288.413 95.2152 287.736 98.895C287.06 102.575 285.115 105.901 282.24 108.295C279.365 110.69 275.741 112.001 272 112C270.177 112.004 268.367 111.693 266.65 111.08C270.119 106.821 272.009 101.493 272 96V96ZM216 16C228.396 16.0123 240.307 20.8149 249.245 29.4041C258.182 37.9933 263.455 49.7043 263.96 62.0899C259.828 58.3992 254.544 56.2546 249.009 56.0213C243.473 55.7879 238.028 57.4802 233.6 60.8101C230.62 56.8344 226.755 53.6071 222.312 51.3837C217.868 49.1602 212.968 48.0018 208 48H170.74C174.058 38.6469 180.19 30.55 188.294 24.8205C196.397 19.0911 206.075 16.01 216 16V16ZM168 64H208C212.242 64.0056 216.308 65.6931 219.307 68.6925C222.307 71.6919 223.994 75.7583 224 80C224 82.1217 224.843 84.1566 226.343 85.6569C227.843 87.1572 229.878 88 232 88C234.122 88 236.156 87.1572 237.657 85.6569C239.157 84.1566 240 82.1217 240 80C240 77.8783 240.843 75.8434 242.343 74.3432C243.843 72.8429 245.878 72 248 72C250.122 72 252.156 72.8429 253.657 74.3432C255.157 75.8434 256 77.8783 256 80V96C255.997 98.1209 255.153 100.154 253.654 101.654C252.154 103.153 250.121 103.997 248 104H240V96H224V157.33L216 168C212.264 172.957 207.431 176.982 201.879 179.758C196.327 182.533 190.207 183.986 184 184C181.879 183.997 179.846 183.153 178.346 181.654C176.847 180.154 176.003 178.121 176 176V164.12C179.799 162.013 183.115 159.133 185.733 155.666C188.351 152.198 190.213 148.221 191.2 143.99C191.47 144 191.73 144 192 144H208V128H192C185.637 127.992 179.538 125.46 175.039 120.961C170.54 116.462 168.008 110.363 168 104V64ZM168 135.98C170.356 137.756 172.902 139.265 175.59 140.48C175.093 142.556 174.158 144.502 172.85 146.189C171.541 147.875 169.887 149.263 168 150.26V135.98ZM126.51 106.42C127.454 84.6902 131.825 63.246 139.46 42.88C141.279 38.0436 144.607 33.9213 148.951 31.1227C153.295 28.3241 158.424 26.9978 163.58 27.3399C156.029 38.0718 151.984 50.8777 152 64V152C150.826 151.999 149.667 152.257 148.604 152.755C147.541 153.252 146.601 153.978 145.85 154.88L133.42 169.81C129.663 174.322 126.224 179.09 123.13 184.08L126.51 106.42ZM126.68 288.95C120.048 270.72 118.316 251.069 121.655 231.959C124.994 212.85 133.289 194.951 145.71 180.05L155.75 168H160V176C160.008 182.363 162.54 188.462 167.039 192.961C171.538 197.46 177.637 199.992 184 200C192.69 199.98 201.257 197.947 209.03 194.061C216.803 190.174 223.57 184.54 228.8 177.6L236 168H245.39L242.14 179.4C235.77 201.609 237.311 225.341 246.5 246.54C237.93 256.782 232.741 269.426 231.647 282.735C230.553 296.045 233.607 309.366 240.39 320.87C230.578 330.735 218.913 338.563 206.066 343.905C193.219 349.248 179.443 351.999 165.53 352H149.6L126.68 288.95ZM318.11 464H208V430.11L213.9 431.72C215.26 432.089 216.694 432.093 218.056 431.732C219.419 431.37 220.662 430.656 221.66 429.66C225.128 426.184 229.603 423.888 234.45 423.1C239.297 422.312 244.269 423.071 248.66 425.27L318.96 460.42C319.34 460.611 319.644 460.925 319.823 461.311C320.003 461.697 320.047 462.132 319.949 462.546C319.851 462.96 319.616 463.328 319.282 463.592C318.948 463.856 318.535 464 318.11 464V464ZM417.06 464H335.9C335.968 463.372 336.002 462.741 336 462.11C336.011 458.785 335.09 455.524 333.342 452.696C331.594 449.868 329.089 447.586 326.11 446.11L255.82 410.96C249.16 407.624 241.69 406.248 234.278 406.989C226.866 407.731 219.817 410.561 213.95 415.15L161.83 400.93C139.879 394.924 116.96 393.296 94.3798 396.14L63.0099 400.06L64.9899 415.94L96.37 412.02C116.874 409.436 137.687 410.914 157.62 416.37L192 425.75V464H122.39C95.1747 464.009 68.1365 459.623 42.32 451.01C33.6491 448.119 26.2897 442.238 21.5585 434.418C16.8272 426.598 15.033 417.35 16.4967 408.328C17.9605 399.306 22.5867 391.099 29.5477 385.176C36.5086 379.253 45.35 376.001 54.4899 376H144C145.051 376 146.091 375.794 147.062 375.392C148.032 374.99 148.914 374.4 149.657 373.657C150.4 372.915 150.99 372.033 151.391 371.062C151.793 370.091 152 369.051 152 368H165.53C197.177 367.99 227.575 355.646 250.27 333.59L250.34 333.66C250.917 334.229 251.574 334.711 252.29 335.09L420.29 423.09L427.71 408.91L398.49 393.61L378.51 323.69L401.82 312.04L455.74 390.47C460.586 397.518 463.414 405.755 463.918 414.293C464.423 422.831 462.585 431.345 458.603 438.915C454.621 446.484 448.647 452.822 441.325 457.243C434.003 461.664 425.613 464 417.06 464V464Z" fill="url(#paint3_linear)"/>
<defs>
<linearGradient id="paint0_linear" x1="271.46" y1="74.69" x2="271.46" y2="75.21" gradientUnits="userSpaceOnUse">
<stop stop-color="#7ED56F"/>
<stop offset="1" stop-color="#28B485"/>
</linearGradient>
<linearGradient id="paint1_linear" x1="176" y1="72" x2="176" y2="88" gradientUnits="userSpaceOnUse">
<stop stop-color="#7ED56F"/>
<stop offset="1" stop-color="#28B485"/>
</linearGradient>
<linearGradient id="paint2_linear" x1="200" y1="72" x2="200" y2="88" gradientUnits="userSpaceOnUse">
<stop stop-color="#7ED56F"/>
<stop offset="1" stop-color="#28B485"/>
</linearGradient>
<linearGradient id="paint3_linear" x1="240" y1="-3.05176e-05" x2="240" y2="480" gradientUnits="userSpaceOnUse">
<stop stop-color="#7ED56F"/>
<stop offset="1" stop-color="#28B485"/>
</linearGradient>
</defs>
</svg>
