<svg width="512" height="512" viewBox="0 0 512 512" fill="none" xmlns="http://www.w3.org/2000/svg">
<path d="M329.365 346H182.635C202.028 364.904 228.3 376 256 376C283.7 376 309.972 364.903 329.365 346Z" fill="url(#paint0_linear)"/>
<path d="M449.359 132.118L394.559 117.44L379.881 62.64C377.742 54.627 369.495 49.867 361.512 52.035L306.712 66.713L266.605 26.606C260.746 20.747 251.253 20.747 245.394 26.606L205.287 66.713L150.487 52.035C142.562 49.882 134.257 54.657 132.118 62.64L117.44 117.44L62.6401 132.118C54.6421 134.257 49.8961 142.489 52.0351 150.487L56.1891 166H144.096C169.028 128.89 210.966 106 255.999 106C301.032 106 342.97 128.89 367.902 166H455.809L459.964 150.487C462.103 142.489 457.357 134.256 449.359 132.118V132.118Z" fill="url(#paint1_linear)"/>
<path d="M182.635 166H329.365C309.972 147.096 283.7 136 256 136C228.3 136 202.027 147.096 182.635 166Z" fill="url(#paint2_linear)"/>
<path d="M144.097 346H56.1892L52.0342 361.513C49.8952 369.511 54.6412 377.743 62.6392 379.882L117.439 394.56L132.117 449.36C134.256 457.373 142.532 462.177 150.486 459.965L205.286 445.287L245.393 485.394C248.323 488.324 252.161 489.789 255.998 489.789C259.835 489.789 263.674 488.324 266.603 485.394L306.71 445.287L361.51 459.965C369.523 462.192 377.755 457.372 379.879 449.36L394.557 394.56L449.357 379.882C457.355 377.743 462.101 369.511 459.962 361.513L455.81 346H367.903C342.971 383.11 301.033 406 256 406C210.967 406 169.028 383.11 144.097 346V346Z" fill="url(#paint3_linear)"/>
<path d="M510.853 205.257C508.539 199.647 503.06 195.999 496.996 195.999H15.0031C8.93907 195.999 3.46007 199.646 1.14607 205.257C-1.18293 210.867 0.106069 217.313 4.39807 221.605L38.7921 256L4.39807 290.394C0.106069 294.686 -1.18293 301.131 1.14607 306.742C3.46007 312.352 8.93907 316 15.0031 316H496.996C503.06 316 508.539 312.353 510.853 306.742C513.182 301.132 511.893 294.686 507.601 290.394L473.207 256L507.602 221.605C511.893 217.313 513.182 210.868 510.853 205.257V205.257ZM136 271C127.716 271 121 264.284 121 256C121 247.714 127.716 241 136 241C144.284 241 151 247.714 151 256C151 264.283 144.283 271 136 271ZM316 271H196C187.709 271 181 264.291 181 256C181 247.709 187.709 241 196 241H316C324.291 241 331 247.709 331 256C331 264.291 324.291 271 316 271ZM376 271C367.716 271 361 264.284 361 256C361 247.714 367.716 241 376 241C384.284 241 391 247.714 391 256C391 264.283 384.283 271 376 271Z" fill="url(#paint4_linear)"/>
<defs>
<linearGradient id="paint0_linear" x1="256" y1="346" x2="256" y2="376" gradientUnits="userSpaceOnUse">
<stop stop-color="#7ED56F"/>
<stop offset="1" stop-color="#28B485"/>
</linearGradient>
<linearGradient id="paint1_linear" x1="256" y1="22.2118" x2="256" y2="166" gradientUnits="userSpaceOnUse">
<stop stop-color="#7ED56F"/>
<stop offset="1" stop-color="#28B485"/>
</linearGradient>
<linearGradient id="paint2_linear" x1="256" y1="136" x2="256" y2="166" gradientUnits="userSpaceOnUse">
<stop stop-color="#7ED56F"/>
<stop offset="1" stop-color="#28B485"/>
</linearGradient>
<linearGradient id="paint3_linear" x1="255.998" y1="346" x2="255.998" y2="489.789" gradientUnits="userSpaceOnUse">
<stop stop-color="#7ED56F"/>
<stop offset="1" stop-color="#28B485"/>
</linearGradient>
<linearGradient id="paint4_linear" x1="256" y1="195.999" x2="256" y2="316" gradientUnits="userSpaceOnUse">
<stop stop-color="#7ED56F"/>
<stop offset="1" stop-color="#28B485"/>
</linearGradient>
</defs>
</svg>
