<?xml version="1.0"?>
<svg xmlns="http://www.w3.org/2000/svg" xmlns:xlink="http://www.w3.org/1999/xlink" xmlns:svgjs="http://svgjs.com/svgjs" version="1.1" width="512" height="512" x="0" y="0" viewBox="0 0 511.999 511.999" style="enable-background:new 0 0 512 512" xml:space="preserve" class=""><g><g xmlns="http://www.w3.org/2000/svg"><path d="m329.365 346h-146.73c19.393 18.904 45.665 30 73.365 30s53.972-11.097 73.365-30z" fill="#ffffff" data-original="#000000" style="" class=""/><path d="m449.359 132.118-54.8-14.678-14.678-54.8c-2.139-8.013-10.386-12.773-18.369-10.605l-54.8 14.678-40.107-40.107c-5.859-5.859-15.352-5.859-21.211 0l-40.107 40.107-54.8-14.678c-7.925-2.153-16.23 2.622-18.369 10.605l-14.678 54.8-54.8 14.678c-7.998 2.139-12.744 10.371-10.605 18.369l4.154 15.513h87.907c24.932-37.11 66.87-60 111.903-60s86.971 22.89 111.903 60h87.907l4.155-15.513c2.139-7.998-2.607-16.231-10.605-18.369z" fill="#ffffff" data-original="#000000" style="" class=""/><path d="m182.635 166h146.73c-19.393-18.904-45.665-30-73.365-30s-53.973 11.096-73.365 30z" fill="#ffffff" data-original="#000000" style="" class=""/><path d="m144.097 346h-87.908l-4.155 15.513c-2.139 7.998 2.607 16.23 10.605 18.369l54.8 14.678 14.678 54.8c2.139 8.013 10.415 12.817 18.369 10.605l54.8-14.678 40.107 40.107c2.93 2.93 6.768 4.395 10.605 4.395s7.676-1.465 10.605-4.395l40.107-40.107 54.8 14.678c8.013 2.227 16.245-2.593 18.369-10.605l14.678-54.8 54.8-14.678c7.998-2.139 12.744-10.371 10.605-18.369l-4.152-15.513h-87.907c-24.932 37.11-66.87 60-111.903 60s-86.972-22.89-111.903-60z" fill="#ffffff" data-original="#000000" style="" class=""/><path d="m510.853 205.257c-2.314-5.61-7.793-9.258-13.857-9.258h-481.993c-6.064 0-11.543 3.647-13.857 9.258-2.329 5.61-1.04 12.056 3.252 16.348l34.394 34.395-34.394 34.394c-4.292 4.292-5.581 10.737-3.252 16.348 2.314 5.61 7.793 9.258 13.857 9.258h481.993c6.064 0 11.543-3.647 13.857-9.258 2.329-5.61 1.04-12.056-3.252-16.348l-34.394-34.394 34.395-34.395c4.291-4.292 5.58-10.737 3.251-16.348zm-374.853 65.743c-8.284 0-15-6.716-15-15 0-8.286 6.716-15 15-15s15 6.714 15 15c0 8.283-6.717 15-15 15zm180 0h-120c-8.291 0-15-6.709-15-15s6.709-15 15-15h120c8.291 0 15 6.709 15 15s-6.709 15-15 15zm60 0c-8.284 0-15-6.716-15-15 0-8.286 6.716-15 15-15s15 6.714 15 15c0 8.283-6.717 15-15 15z" fill="#ffffff" data-original="#000000" style="" class=""/></g></g></svg>
