<svg width="497" height="432" viewBox="0 0 497 432" fill="none" xmlns="http://www.w3.org/2000/svg">
<path d="M493.971 306.213C488.685 290.321 473.811 279.601 457.061 279.617H306.724C302.956 274.627 298.052 270.613 292.423 267.898L246.861 246.455C232.462 239.687 216.211 237.931 200.701 241.47L111.847 261.84V255.696C111.847 251.284 108.269 247.707 103.858 247.707H7.98904C3.57713 247.707 0 251.284 0 255.696V407.441C0 411.853 3.57713 415.43 7.98904 415.43H103.858C108.269 415.43 111.847 411.853 111.847 407.441V402.967L268.433 430.34C272.497 431.053 276.617 431.412 280.744 431.408C290.227 431.389 299.616 429.489 308.362 425.814L472.625 354.124C491.123 346.142 500.407 325.304 493.971 306.213ZM15.9781 399.452V263.685H95.8685V399.452H15.9781ZM466.232 339.534L302.097 411.155C292.341 415.231 281.618 416.425 271.202 414.599L111.847 386.751V278.236L204.255 257.038C216.282 254.315 228.874 255.677 240.038 260.908L285.577 282.359C291.659 285.242 296.223 290.59 298.118 297.05C300.069 303.638 299.121 310.75 295.505 316.597C289.31 326.743 276.414 330.512 265.733 325.3L210.391 298.134C206.42 296.191 201.626 297.834 199.683 301.805C197.737 305.776 199.383 310.57 203.354 312.517L258.692 339.679C276.745 348.553 298.583 342.218 309.08 325.058C314.479 316.246 316.258 305.69 314.05 295.595H457.053C467.917 295.579 477.302 303.197 479.522 313.831C481.742 324.469 476.187 335.2 466.224 339.534H466.232Z" fill="url(#paint0_linear)"/>
<path d="M303.584 223.693C365.354 223.693 415.43 173.617 415.43 111.847C415.43 50.0759 365.354 0 303.584 0C241.813 0 191.737 50.0759 191.737 111.847C191.803 173.59 241.84 223.627 303.584 223.693ZM303.584 15.9781C356.531 15.9781 399.452 58.8997 399.452 111.847C399.452 164.794 356.531 207.715 303.584 207.715C250.637 207.715 207.715 164.794 207.715 111.847C207.774 58.9231 250.66 16.0366 303.584 15.9781Z" fill="url(#paint1_linear)"/>
<path d="M246.584 63.9124C248.729 63.9124 250.785 63.0503 252.287 61.5173C254.826 58.9193 257.553 56.5163 260.452 54.324C263.982 51.6792 264.696 46.6705 262.047 43.1401C259.402 39.6098 254.393 38.896 250.863 41.5447C247.321 44.2168 243.986 47.1542 240.885 50.3295C238.634 52.6271 237.978 56.0482 239.223 59.0129C240.467 61.9776 243.366 63.9085 246.584 63.9124Z" fill="url(#paint2_linear)"/>
<path d="M268.433 192.385C271.066 193.633 274.167 193.348 276.527 191.643C278.891 189.939 280.135 187.083 279.78 184.193C279.425 181.302 277.526 178.833 274.822 177.748C256.055 169.568 241.669 153.77 235.275 134.32C228.878 114.874 231.082 93.6176 241.333 75.8958C242.866 73.4187 242.929 70.3058 241.497 67.7702C240.069 65.2347 237.374 63.6743 234.46 63.7055C231.55 63.7328 228.885 65.3439 227.504 67.9068C214.994 89.5685 212.31 115.537 220.124 139.301C227.937 163.065 245.507 182.371 268.433 192.385Z" fill="url(#paint3_linear)"/>
<path d="M263.656 97.272H274.24C275.2 91.224 276.808 85.776 279.064 80.928C281.368 76.032 284.2 71.88 287.56 68.472C290.968 65.016 294.856 62.376 299.224 60.552C303.64 58.728 308.44 57.816 313.624 57.816C316.84 57.816 319.816 58.128 322.552 58.752C325.288 59.376 327.808 60.264 330.112 61.416C332.464 62.568 334.624 63.984 336.592 65.664C338.56 67.344 340.384 69.24 342.064 71.352L337.6 76.248C337.264 76.68 336.88 77.064 336.448 77.4C336.064 77.688 335.536 77.832 334.864 77.832C334.048 77.832 333.184 77.376 332.272 76.464C331.408 75.552 330.232 74.544 328.744 73.44C327.256 72.336 325.36 71.328 323.056 70.416C320.752 69.504 317.8 69.048 314.2 69.048C307.192 69.048 301.36 71.448 296.704 76.248C292.096 81.048 289.024 88.056 287.488 97.272H326.872V101.232C326.872 102.096 326.536 102.888 325.864 103.608C325.24 104.28 324.328 104.616 323.128 104.616H286.624C286.576 105.576 286.528 106.536 286.48 107.496C286.48 108.456 286.48 109.44 286.48 110.448C286.48 111.216 286.48 111.96 286.48 112.68C286.48 113.4 286.504 114.12 286.552 114.84H320.176V118.872C320.176 119.688 319.816 120.456 319.096 121.176C318.424 121.848 317.536 122.184 316.432 122.184H287.2C288.544 132.072 291.496 139.488 296.056 144.432C300.664 149.376 306.472 151.848 313.48 151.848C316.072 151.848 318.352 151.608 320.32 151.128C322.288 150.6 323.992 149.952 325.432 149.184C326.872 148.416 328.096 147.6 329.104 146.736C330.16 145.824 331.072 144.984 331.84 144.216C332.608 143.448 333.28 142.824 333.856 142.344C334.48 141.816 335.08 141.552 335.656 141.552C336.088 141.552 336.448 141.624 336.736 141.768C337.024 141.912 337.36 142.176 337.744 142.56L343.144 147.6C339.736 152.448 335.536 156.24 330.544 158.976C325.552 161.712 319.648 163.08 312.832 163.08C307.264 163.08 302.248 162.144 297.784 160.272C293.32 158.352 289.432 155.64 286.12 152.136C282.856 148.584 280.192 144.288 278.128 139.248C276.064 134.16 274.648 128.472 273.88 122.184H263.656V114.84H273.304C273.256 114.12 273.232 113.4 273.232 112.68C273.232 111.96 273.232 111.216 273.232 110.448C273.232 109.488 273.232 108.528 273.232 107.568C273.28 106.56 273.328 105.576 273.376 104.616H263.656V97.272Z" fill="url(#paint4_linear)"/>
<defs>
<linearGradient id="paint0_linear" x1="248.004" y1="239.685" x2="248.004" y2="431.408" gradientUnits="userSpaceOnUse">
<stop stop-color="#7ED56F"/>
<stop offset="1" stop-color="#28B485"/>
</linearGradient>
<linearGradient id="paint1_linear" x1="303.584" y1="0" x2="303.584" y2="223.693" gradientUnits="userSpaceOnUse">
<stop stop-color="#7ED56F"/>
<stop offset="1" stop-color="#28B485"/>
</linearGradient>
<linearGradient id="paint2_linear" x1="251.124" y1="39.9448" x2="251.124" y2="63.9124" gradientUnits="userSpaceOnUse">
<stop stop-color="#7ED56F"/>
<stop offset="1" stop-color="#28B485"/>
</linearGradient>
<linearGradient id="paint3_linear" x1="247.783" y1="63.705" x2="247.783" y2="193.155" gradientUnits="userSpaceOnUse">
<stop stop-color="#7ED56F"/>
<stop offset="1" stop-color="#28B485"/>
</linearGradient>
<linearGradient id="paint4_linear" x1="304" y1="20" x2="304" y2="193" gradientUnits="userSpaceOnUse">
<stop stop-color="#7ED56F"/>
<stop offset="1" stop-color="#28B485"/>
</linearGradient>
</defs>
</svg>
