<svg width="497" height="497" viewBox="0 0 497 497" fill="none" xmlns="http://www.w3.org/2000/svg">
<path d="M475.323 374.462C468.123 332.862 436.123 300.062 394.523 291.262L305.723 272.062C304.923 272.062 304.923 272.062 304.123 272.062V221.662C328.923 204.062 344.123 174.462 344.123 144.062V96.062C344.123 43.262 300.923 0.0620117 248.123 0.0620117C195.323 0.0620117 152.123 43.262 152.123 96.062V144.062C152.123 175.262 167.323 204.062 192.123 221.662V272.062C191.323 272.062 191.323 272.062 190.523 272.062L101.723 290.462C60.123 299.262 28.123 332.062 20.923 373.662L0.123043 486.462C-0.676957 490.462 2.52304 495.262 6.52304 496.062C7.32304 496.062 7.32304 496.062 8.12304 496.062H488.123C492.923 496.062 496.123 492.862 496.123 488.062C496.123 487.262 496.123 487.262 496.123 486.462L475.323 374.462ZM248.123 16.062C286.523 16.062 318.523 42.462 326.523 80.062H169.723C177.723 42.462 209.723 16.062 248.123 16.062ZM324.923 96.062L300.923 120.062H195.323L171.323 96.062H324.923ZM168.123 144.062V115.262L186.523 133.662C188.123 135.262 189.723 136.062 192.123 136.062H304.123C306.523 136.062 308.123 135.262 309.723 133.662L328.123 115.262V144.062C328.123 188.062 292.123 224.062 248.123 224.062C204.123 224.062 168.123 188.062 168.123 144.062ZM288.123 231.262V284.862L282.523 290.462C273.723 299.262 260.923 304.862 248.923 304.862H247.323C234.523 304.862 222.523 300.062 213.723 290.462L208.123 284.862V231.262C220.923 236.862 234.523 240.062 248.123 240.062C261.723 240.062 275.323 236.862 288.123 231.262ZM176.123 292.062L189.723 288.862L201.723 301.662C213.723 313.662 229.723 320.062 247.323 320.062H248.923C265.723 320.062 282.523 313.662 294.523 301.662L307.323 288.862L320.923 292.062V317.662L278.523 373.662C264.123 356.862 239.323 355.262 222.523 369.662C220.923 371.262 220.123 372.062 218.523 373.662L176.123 317.662V292.062V292.062ZM248.123 424.062C234.523 424.062 224.123 413.662 224.123 400.062C224.123 386.462 234.523 376.062 248.123 376.062C261.723 376.062 272.123 386.462 272.123 400.062V448.062H256.123V432.062C256.123 427.262 252.923 424.062 248.123 424.062ZM120.123 480.062H17.723L20.923 464.062H120.123V480.062ZM360.123 480.862H136.123V376.062H120.123V448.062H23.323L36.123 376.862C42.523 341.662 69.723 313.662 104.923 306.462L160.123 294.462V320.062C160.123 321.662 160.923 323.262 161.723 324.862L209.723 388.862C208.923 392.062 208.123 396.062 208.123 400.062C208.123 419.262 221.723 435.262 240.123 439.262V456.062C240.123 460.862 243.323 464.062 248.123 464.062H280.123C284.923 464.062 288.123 460.862 288.123 456.062V400.062C288.123 396.062 287.323 392.062 286.523 388.862L334.523 324.862C335.323 323.262 336.123 321.662 336.123 320.062V295.262L391.323 307.262C426.523 314.462 453.723 342.462 460.123 377.662L472.923 448.862H376.123V376.862H360.123V480.862ZM376.123 480.062V464.062H475.323L478.523 480.062H376.123Z" fill="url(#paint0_linear)"/>
<path d="M256.123 392.062H240.123V408.062H256.123V392.062Z" fill="url(#paint1_linear)"/>
<defs>
<linearGradient id="paint0_linear" x1="248.061" y1="0.0620117" x2="248.061" y2="496.062" gradientUnits="userSpaceOnUse">
<stop stop-color="#7ED56F"/>
<stop offset="1" stop-color="#28B485"/>
</linearGradient>
<linearGradient id="paint1_linear" x1="248.123" y1="392.062" x2="248.123" y2="408.062" gradientUnits="userSpaceOnUse">
<stop stop-color="#7ED56F"/>
<stop offset="1" stop-color="#28B485"/>
</linearGradient>
</defs>
</svg>
